<mxfile host="app.diagrams.net" modified="2020-09-20T15:07:15.410Z" agent="5.0 (Macintosh; Intel Mac OS X 10_11_6) AppleWebKit/537.36 (KHTML, like Gecko) Chrome/81.0.4044.122 Safari/537.36" etag="E5XiLIUEAg8wHGi-6J1h" version="13.7.3" type="github">
  <diagram id="3zochYUgwbihCfeMULMJ" name="第 1 页">
    <mxGraphModel dx="931" dy="619" grid="1" gridSize="10" guides="1" tooltips="1" connect="1" arrows="1" fold="1" page="1" pageScale="1" pageWidth="827" pageHeight="1169" math="0" shadow="0">
      <root>
        <mxCell id="0" />
        <mxCell id="1" parent="0" />
        <mxCell id="8V_JbGcPxF7H4k84cbBT-1" value="就餐系统前台" style="shape=umlLifeline;perimeter=lifelinePerimeter;whiteSpace=wrap;html=1;container=1;collapsible=0;recursiveResize=0;outlineConnect=0;" vertex="1" parent="1">
          <mxGeometry x="240" y="160" width="100" height="300" as="geometry" />
        </mxCell>
        <mxCell id="8V_JbGcPxF7H4k84cbBT-5" value="" style="html=1;points=[];perimeter=orthogonalPerimeter;" vertex="1" parent="8V_JbGcPxF7H4k84cbBT-1">
          <mxGeometry x="45" y="70" width="10" height="80" as="geometry" />
        </mxCell>
        <mxCell id="8V_JbGcPxF7H4k84cbBT-2" value="就餐Pos机" style="shape=umlLifeline;perimeter=lifelinePerimeter;whiteSpace=wrap;html=1;container=1;collapsible=0;recursiveResize=0;outlineConnect=0;" vertex="1" parent="1">
          <mxGeometry x="440" y="160" width="100" height="300" as="geometry" />
        </mxCell>
        <mxCell id="8V_JbGcPxF7H4k84cbBT-28" value="" style="html=1;points=[];perimeter=orthogonalPerimeter;" vertex="1" parent="8V_JbGcPxF7H4k84cbBT-2">
          <mxGeometry x="45" y="110" width="10" height="40" as="geometry" />
        </mxCell>
        <mxCell id="8V_JbGcPxF7H4k84cbBT-29" value="4：显示消费金额" style="edgeStyle=orthogonalEdgeStyle;html=1;align=left;spacingLeft=2;endArrow=block;rounded=0;entryX=1;entryY=0;" edge="1" target="8V_JbGcPxF7H4k84cbBT-28" parent="8V_JbGcPxF7H4k84cbBT-2">
          <mxGeometry relative="1" as="geometry">
            <mxPoint x="45" y="90" as="sourcePoint" />
            <Array as="points">
              <mxPoint x="80" y="90" />
              <mxPoint x="80" y="110" />
            </Array>
          </mxGeometry>
        </mxCell>
        <mxCell id="8V_JbGcPxF7H4k84cbBT-3" value="就餐系统后台" style="shape=umlLifeline;perimeter=lifelinePerimeter;whiteSpace=wrap;html=1;container=1;collapsible=0;recursiveResize=0;outlineConnect=0;" vertex="1" parent="1">
          <mxGeometry x="640" y="160" width="100" height="330" as="geometry" />
        </mxCell>
        <mxCell id="8V_JbGcPxF7H4k84cbBT-30" value="" style="html=1;points=[];perimeter=orthogonalPerimeter;" vertex="1" parent="8V_JbGcPxF7H4k84cbBT-3">
          <mxGeometry x="45" y="160" width="10" height="50" as="geometry" />
        </mxCell>
        <mxCell id="8V_JbGcPxF7H4k84cbBT-33" value="" style="html=1;points=[];perimeter=orthogonalPerimeter;" vertex="1" parent="8V_JbGcPxF7H4k84cbBT-3">
          <mxGeometry x="45" y="230" width="10" height="40" as="geometry" />
        </mxCell>
        <mxCell id="8V_JbGcPxF7H4k84cbBT-34" value="7：统计消费" style="edgeStyle=orthogonalEdgeStyle;html=1;align=left;spacingLeft=2;endArrow=block;rounded=0;entryX=1;entryY=0;" edge="1" target="8V_JbGcPxF7H4k84cbBT-33" parent="8V_JbGcPxF7H4k84cbBT-3">
          <mxGeometry relative="1" as="geometry">
            <mxPoint x="50" y="210" as="sourcePoint" />
            <Array as="points">
              <mxPoint x="75" y="210" />
            </Array>
          </mxGeometry>
        </mxCell>
        <mxCell id="8V_JbGcPxF7H4k84cbBT-35" value="" style="html=1;points=[];perimeter=orthogonalPerimeter;" vertex="1" parent="8V_JbGcPxF7H4k84cbBT-3">
          <mxGeometry x="45" y="290" width="10" height="40" as="geometry" />
        </mxCell>
        <mxCell id="8V_JbGcPxF7H4k84cbBT-36" value="8：打印报表" style="edgeStyle=orthogonalEdgeStyle;html=1;align=left;spacingLeft=2;endArrow=block;rounded=0;entryX=1;entryY=0;" edge="1" target="8V_JbGcPxF7H4k84cbBT-35" parent="8V_JbGcPxF7H4k84cbBT-3">
          <mxGeometry relative="1" as="geometry">
            <mxPoint x="50" y="270" as="sourcePoint" />
            <Array as="points">
              <mxPoint x="75" y="270" />
            </Array>
          </mxGeometry>
        </mxCell>
        <mxCell id="8V_JbGcPxF7H4k84cbBT-4" value="Actor" style="shape=umlActor;verticalLabelPosition=bottom;verticalAlign=top;html=1;" vertex="1" parent="1">
          <mxGeometry x="140" y="200" width="30" height="70" as="geometry" />
        </mxCell>
        <mxCell id="8V_JbGcPxF7H4k84cbBT-9" value="" style="endArrow=open;endFill=1;endSize=12;html=1;" edge="1" parent="1">
          <mxGeometry width="160" relative="1" as="geometry">
            <mxPoint x="310" y="280" as="sourcePoint" />
            <mxPoint x="470" y="280" as="targetPoint" />
          </mxGeometry>
        </mxCell>
        <mxCell id="8V_JbGcPxF7H4k84cbBT-10" value="3：消费" style="edgeLabel;html=1;align=center;verticalAlign=middle;resizable=0;points=[];" vertex="1" connectable="0" parent="8V_JbGcPxF7H4k84cbBT-9">
          <mxGeometry x="-0.2125" y="4" relative="1" as="geometry">
            <mxPoint y="1" as="offset" />
          </mxGeometry>
        </mxCell>
        <mxCell id="8V_JbGcPxF7H4k84cbBT-15" value="" style="endArrow=open;endFill=1;endSize=12;html=1;" edge="1" parent="1">
          <mxGeometry width="160" relative="1" as="geometry">
            <mxPoint x="170" y="260" as="sourcePoint" />
            <mxPoint x="280" y="260" as="targetPoint" />
          </mxGeometry>
        </mxCell>
        <mxCell id="8V_JbGcPxF7H4k84cbBT-18" value="2:充值" style="edgeLabel;html=1;align=center;verticalAlign=middle;resizable=0;points=[];" vertex="1" connectable="0" parent="8V_JbGcPxF7H4k84cbBT-15">
          <mxGeometry x="-0.2333" y="-2" relative="1" as="geometry">
            <mxPoint as="offset" />
          </mxGeometry>
        </mxCell>
        <mxCell id="8V_JbGcPxF7H4k84cbBT-21" value="" style="endArrow=open;endFill=1;endSize=12;html=1;" edge="1" parent="1">
          <mxGeometry width="160" relative="1" as="geometry">
            <mxPoint x="170" y="240" as="sourcePoint" />
            <mxPoint x="280" y="238" as="targetPoint" />
          </mxGeometry>
        </mxCell>
        <mxCell id="8V_JbGcPxF7H4k84cbBT-26" value="1:注册" style="edgeLabel;html=1;align=center;verticalAlign=middle;resizable=0;points=[];" vertex="1" connectable="0" parent="8V_JbGcPxF7H4k84cbBT-21">
          <mxGeometry x="-0.2194" y="-4" relative="1" as="geometry">
            <mxPoint as="offset" />
          </mxGeometry>
        </mxCell>
        <mxCell id="8V_JbGcPxF7H4k84cbBT-27" value="5：查询余额" style="html=1;verticalAlign=bottom;endArrow=open;dashed=1;endSize=8;" edge="1" parent="1">
          <mxGeometry relative="1" as="geometry">
            <mxPoint x="460" y="310" as="sourcePoint" />
            <mxPoint x="310" y="309.5" as="targetPoint" />
          </mxGeometry>
        </mxCell>
        <mxCell id="8V_JbGcPxF7H4k84cbBT-31" value="" style="endArrow=open;endFill=1;endSize=12;html=1;" edge="1" parent="1">
          <mxGeometry width="160" relative="1" as="geometry">
            <mxPoint x="500" y="330" as="sourcePoint" />
            <mxPoint x="660" y="330" as="targetPoint" />
          </mxGeometry>
        </mxCell>
        <mxCell id="8V_JbGcPxF7H4k84cbBT-32" value="6：监控消费流水" style="text;html=1;align=center;verticalAlign=middle;resizable=0;points=[];autosize=1;" vertex="1" parent="1">
          <mxGeometry x="520" y="310" width="110" height="20" as="geometry" />
        </mxCell>
      </root>
    </mxGraphModel>
  </diagram>
</mxfile>
